<svg xmlns="http://www.w3.org/2000/svg" xmlns:xlink="http://www.w3.org/1999/xlink" version="1.1" x="0px" y="0px" viewBox="0 0 248.872 195.43125" enable-background="new 0 0 248.872 156.345" xml:space="preserve"><path fill-rule="evenodd" clip-rule="evenodd" fill="none" stroke="#000000" stroke-width="0.5" stroke-miterlimit="10" d="  M174.973,17.259c2.179,0.523,3.426,2.033,4.196,4.027c1.124,1.232,0.939,2.841,1.178,4.311c0.069,0.455,0.092,0.909,0.3,1.34  c0.277,0.439,0.131,0.916,0.17,1.386c0.1,1.963-1.201,3.564-1.401,5.474c-0.131,1.394-1.316,0.793-2.141,0.808  c-3.603-0.231-7.206-0.27-10.801,0.262c-1.932-0.585-3.534,0.354-5.189,1.109c-1.763-1.794-3.996-1.878-6.336-1.871  c-7.499,0.023-14.998-0.424-22.504-0.501c-0.693,0-1.355,0.062-1.979,0.362c-0.747,0.1-1.093,0.485-1.016,1.263  c0.092,0.993-0.008,1.994,0.023,2.987c0.023,0.624-0.008,1.609-1.193,1.347c-1.016-0.708-0.631-1.786-0.685-2.725  c-0.162-2.718-0.778-3.365-3.503-3.441c-1.24-0.031-2.479,0-3.719-0.023c-2.587-0.031-3.157,0.485-3.203,3.125  c-0.054,3.534,0.016,7.068-0.038,10.609c-0.016,0.87,0.292,1.902-0.739,2.51c-0.216,0.069-0.431,0.077-0.654,0.015  c-0.909-0.438-0.608-1.286-0.624-1.986c-0.062-4.042,0.039-8.084,0.193-12.118c0.031,0.909-0.039,1.81,0,2.718  c0.023,0.547-0.015,1.386-1.008,1.309c-1.125-0.508-0.816-1.555-0.847-2.433c-0.154-3.418-0.708-4.265-4.142-4.334  c-6.074-0.115-12.134-0.662-18.216-0.493c-2.109,0.062-2.633,0.608-3.033,2.741c-0.631,3.365-0.416,6.798-0.57,10.193  c-0.215,4.573-0.447,9.154-0.554,13.735c-0.092,3.958-0.216,7.93-0.593,11.872c-0.285,3.033-0.016,6.059,0.208,9.084  c-0.162,0.47-0.447,0.893-0.57,1.371c-0.339,1.224-1.093,1.57-2.34,1.471c-6.236-0.516-12.457-1.271-18.693-1.794  c-10.917-0.901-21.803-2.41-32.797-2.164c-2.333,0.062-4.558-0.454-6.428-1.979c-0.101-12.634,0.708-25.237,0.631-37.879  c-0.015-2.957,0.4-5.913,0-8.892c-0.177-1.271,0.316-2.448,1.047-3.488c2.333-3.303,4.442-6.713,6.06-10.44  c0.808-1.871,2.232-3.318,4.219-3.98c3.326-1.109,6.375-2.764,9.354-4.55c2.125-1.278,4.396-1.678,6.798-1.239  c7.214,1.324,14.521,1.57,21.819,2.109c8.9,0.662,17.785,1.517,26.669,2.325c9.254,0.847,18.5,1.825,27.778,2.541  c7.16,0.554,14.32,1.047,21.48,1.694c5.99,0.539,12.002,0.939,18.008,1.401C171.408,16.566,173.117,17.397,174.973,17.259z   M176.536,35.375c1.063,7.222,1.771,14.497,3.002,21.704c0.393,3.718,0.377,7.468,0.916,11.171c0.016,0.215,0.054,0.423,0.093,0.639  c0.038,0.093,0.077,0.2,0.115,0.301c0.416,1.039,0.539,2.132,0.539,3.241c0.016,2.833,0.308,5.697-0.908,8.399  c-0.016,0.215,0,0.431,0,0.646c0.046,0.339,0.007,0.662-0.016,1.001c0.031,2.425-0.678,4.804-0.547,7.237  c0.016,0.678,0.039,1.355-0.008,2.033c-0.077,0.985-0.323,1.948-0.361,2.941c-0.347,9.062-0.932,18.116-1.486,27.162  c0.016,1.371-0.2,2.718-0.4,4.073c-0.262,1.809-1.216,3.056-2.849,3.841c-6.698,3.234-13.827,4.289-21.156,4.042  c-2.957-0.1-5.936-0.285-8.893-0.585c-3.826-0.393-7.629-1.116-11.51-0.839c1.14,0.008,2.518,0.508,3.311-0.4  c1.278-1.447,3.157-2.494,3.495-4.673c0.377-2.495,0.362-5.02,0.739-7.507c0.008-2.048,0.192-4.088,0.262-6.121  c0.093-2.771,0.585-5.543,0.177-8.322c-0.062-0.223-0.162-0.416-0.285-0.608c-2.279-0.5-4.604-0.708-6.914-1.008  c-1.755-0.239-2.602-1.024-2.463-2.402c0.3-3.126,0.015-6.267,0.285-9.385c0.177-1.301-0.454-2.425-0.816-3.604  c-0.724-1.124-0.493-2.363-0.408-3.572c-0.447-1.994,0.308-4.003-0.077-6.028c-0.2-1.047-0.77-1.285-1.625-1.239  c-0.924,0.054-1.347,0.539-1.301,1.524c0.023,0.893,0.231,1.802-0.1,2.687c-0.285,0.662,0.215,1.371-0.092,2.033  c-0.208,1.101,0.208,2.202-0.016,3.303c-0.554,1.216-1.271,2.102-2.81,1.617c-0.385-0.124-0.693,0.192-1.016,0.346  c-0.262,0.077-0.523,0.139-0.801,0.192c-0.37,0.069-0.785,0.031-1.078,0.37c-0.315,1.209,0.555,1.117,1.294,1.17  c0.924,0.062,1.909-0.008,2.294,1.147c1.063,2.911,0.793,5.836,0.093,8.769c-0.031,0.146-0.262,0.247-0.4,0.362  c-1.879,0.408-3.772-0.023-5.651,0.177c-0.754,0.085-1.678-0.131-1.925,0.985c0.062,0.924,0.747,0.832,1.348,0.839  c1.647,0.031,3.295,0.015,4.904-0.023c-0.555,0.231-1.401-0.354-1.786,0.546c-0.185,0.939,0.423,1.132,1.154,1.301  c2.71,0.608,2.903,0.885,2.603,3.58c-0.362,2.749,0.239,5.497-0.069,8.269c-0.577,5.112-4.488,8.954-9.601,9.031  c-2.726,0.039-5.451-0.015-8.168,0.062c-5.959,0.185-8.808-3.518-10.093-8.053c-0.624-2.209-0.539-4.542-0.97-6.782  c0.254-1.54-0.262-3.042-0.262-4.566c0-0.908-0.108-1.855,0.708-2.541c1.063-1.039,2.34-1.193,3.788-1.193  c2.694-0.016,5.404,0.247,8.099-0.146c0.177-0.146,0.293-0.323,0.339-0.546c-0.092-1.347-1.155-1.109-1.955-1.139  c-2.918-0.077-5.836,0.007-8.746-0.046c-1.155-0.023-2.433-0.146-2.749-1.44c-0.654-2.748-1.532-5.52-0.646-8.407  c0.131-0.862-0.377-1.524-0.708-2.24c-0.763-0.878-0.947-1.994-1.255-3.064c-0.832-2.911-2.648-4.974-5.397-6.221  c-0.646-0.292-1.301-0.562-1.717,0.331c-0.361,0.085-0.885,0.124-0.908,0.524c-0.1,1.863-1.34,1.54-2.533,1.424  c-8.707-0.847-17.407-1.763-26.122-2.502c-7.722-0.646-15.429-1.686-23.212-1.286c-2.372,0.123-4.711-0.231-6.806-1.509  c-0.423-0.493-0.492-1.178-0.916-1.663c-0.862-1.009-1.324-2.648-3.21-2.056c-0.262,2.456-0.531,4.912-0.793,7.368  c-0.447,0.924-1.586,1.486-1.494,2.718c0.077,1.578-1.116,2.448-1.948,3.526c0.362,1.609,1.17,3.064,1.648,4.635  c-0.377,3.11-0.747,6.213-1.124,9.323c-1.193,1.84-1.348,3.873-1.047,5.967c0.3,2.125,1.008,4.227,1.07,6.313  c0.101,3.326,1.378,4.773,4.351,5.436c0.685,0.154,1.747,0.146,1.608,1.386c-0.3,2.017-0.462,2.109-2.579,1.886  c-0.747-0.077-1.725-0.701-2.032,0.67c-0.246,1.571,0.023,2.856,1.81,3.303c0.662,0.169,1.324,0.308,1.986,0.47  c0.516-0.162,1.031-0.016,1.455,0.162c1.563,0.67,2.225,0.031,2.648-1.471c0.539-1.909,1.532-3.649,2.571-5.343  c3.364-5.489,8.146-8.938,14.597-9.747c5.636-0.708,11.241-0.3,16.807,0.801c9.1,1.817,15.244,8.785,15.713,17.846  c0.854,0.654,0.654,1.755,1.132,2.564c0.539,0.823,1.394,0.793,2.232,0.839c0.947,0.062,1.894-0.315,2.833-0.016  c1.809-0.007,3.649,0.324,5.413-0.215c2.409-0.747,4.827-0.523,7.268-0.346c8.061,0.292,16.114,0.608,24.175,0.854  c1.285,0.038,2.132,0.393,2.502,1.678c1.016,3.519,3.511,4.542,6.968,4.45c7.683-0.208,15.375-0.23,23.073-0.3  c6.729-0.069,13.365-0.647,19.786-2.918c1.647-0.593,3.149-1.301,5.135-1.371c4.596-0.154,8.923-1.663,11.518-6.028  c1.979-0.393,2.471-2.24,3.464-3.58c-0.054-0.447-0.238-0.824,0.146-1.301c1.479-1.817,2.31-4.019,3.218-6.136  c1.386-3.226,3.157-6.336,3.603-9.924c-0.016-0.377,0.108-0.716,0.254-1.07c1.647-4.011,3.057-8.114,3.788-12.403  c0.3-1.717,0.323-3.48,0.739-5.189c0.03-0.531,0.023-1.07,0.023-1.602c-0.231-1.963,0.262-3.903,0.2-5.866  c-0.046-1.263-0.662-2.187-1.848-1.994c-1.947,0.308-3.918,0.523-5.835,0.97c-1.655,0.377-2.525,0.146-3.11-1.139  c-0.631-1.355-0.162-3.026,1.085-3.742c0.924-0.516,1.933-0.708,3.01-0.646c1.648,0.092,3.272-0.293,4.904-0.439  c0.685-0.062,1.54-0.354,1.463-1.563c-0.084-1.085-0.031-2.194-0.177-3.288c-0.646-2.579-0.962-5.266-2.664-7.468  c-0.361-0.108-0.708-0.192-1.07,0.023c-2.564,1.509-5.297,1.424-8.115,1.009c-2.133-0.323-3.618-1.409-4.75-3.188  c-1.817-2.856-3.072-5.897-3.796-9.223c-1.424-6.483-2.325-13.042-3.311-19.594c-0.1-0.67,0.162-1.609-1.001-1.663  c-0.785,1.263-0.608,2.695-0.669,4.065c-0.062,1.247-0.493,1.84-1.794,1.479C176.32,33.827,176.428,34.651,176.536,35.375z   M71.691,135.668c0.085-1.74-0.4-3.395-0.677-5.089c-0.385-2.641-1.902-4.758-3.218-6.96c-0.762-0.962-1.54-1.894-2.671-2.44  c-1.27-0.5-2.564-0.993-3.934-0.97c-4.211,0.077-8.407-0.231-12.588-0.5c-5.72-0.385-10.085,1.163-12.695,6.505  c-0.763,0.686-0.077,1.786-0.654,2.448c-0.993,1.132-1.155,2.287-0.447,3.596c0.239,0.416,0.239,0.809-0.131,1.163  c-1.278,9.277,4.327,16.984,11.864,19.725c0.323,0.315,0.393,0.839,1.024,0.885c3.148,0.246,6.282,0.516,9.438,0.093  c0.308-0.047,0.801-0.101,0.847-0.2c0.693-1.594,2.402-1.57,3.596-2.356c1.748-1.146,3.38-2.348,4.781-3.98  c1.401-1.632,2.086-3.626,3.38-5.258c0.708-1.532,0.631-3.257,1.178-4.835C71.615,137.146,71.646,136.415,71.691,135.668z   M71.16,131.165c2.256,0.37,4.52,0.762,6.813,0.447c0.516-0.069,0.955-0.254,1.047-0.862c-0.4-1.209-0.77-2.418-0.069-3.649  c-0.1-0.416-0.239-0.832-0.285-1.263c-1.14-8.992-8.615-14.574-15.906-16.599c-5.512-1.532-11.194-1.232-16.83-1.109  c-1.555,0.031-3.049,0.362-4.542,0.862c-6.929,2.333-11.287,7.291-13.92,13.827c-0.77,1.886-1.493,3.103-3.664,2.856  c0.8,0.27,2.163,0.393,2.286,0.854c0.462,1.732,1.778,1.501,2.964,1.709c0.886,0.346,1.833-0.046,2.733,0.277  c2.687,0.939,3.041,0.808,4.658-1.524c0.454-0.585,1.008-1.116,1.339-1.771c1.709-3.372,4.527-4.711,8.184-4.596  c4.996,0.154,9.993,0.308,14.99,0.508c1.355,0.054,2.687,0.362,3.896,1.055c0.909,0.647,1.463,1.655,2.31,2.364  c1.647,1.632,1.955,4.019,3.241,5.851C70.575,130.733,70.791,131.103,71.16,131.165z M27.184,49.056  c0.139-5.951,0.316-11.903,0.231-17.846c-0.031-1.917,0.177-3.534,1.363-5.027c2.233-2.849,3.988-5.975,5.358-9.331  c0.739-1.802,2.001-3.195,3.88-3.788c3.295-1.032,6.274-2.687,9.192-4.458c2.187-1.332,4.466-1.717,6.96-1.209  c6.151,1.278,12.434,1.501,18.678,1.894c12.511,0.809,24.968,2.117,37.439,3.257c9.755,0.893,19.509,1.817,29.295,2.463  c9.215,0.593,18.416,1.44,27.639,2.041c2.564,0.162,5.143,0.931,7.753,0.208c-2.41-1.063-4.927-1.678-7.545-1.909  c-18.601-1.602-37.201-3.172-55.794-4.819C91.432,8.736,71.229,6.919,51.12,4.263c-3.449-0.454-6.66-0.123-9.508,2.109  c-1.825,1.432-3.996,2.249-6.144,3.072c-2.102,0.793-3.58,2.187-4.35,4.296c-1.155,3.11-2.779,5.943-4.843,8.538  c-0.962,1.201-1.332,2.579-1.409,4.142c-0.354,7.306-0.832,14.612-1.232,21.919c-0.446,8.114-0.854,16.229-1.285,24.336  c1.378,1.24,2.748,2.479,4.126,3.719C26.715,67.279,26.977,58.171,27.184,49.056z M189.932,128.731  c0.416,6.783,3.742,11.641,9.747,14.713c0.369,1.016,1.031,1.463,2.163,1.563c0.809,0.069,1.687,0.269,2.44,0.215  c3.326-0.231,6.76,1.07,9.854-1.932c1.871-1.817,4.335-3.188,6.298-5.066c4.204-6.198,4.512-12.549,0.786-19.078  c-0.178-0.308-0.216-0.693-0.324-1.039c0.277-0.493,0.085-0.939-0.369-1.055c-2.433-0.608-4.742-1.879-7.368-1.579  c-0.539,0.601-0.993,1.208-0.708,2.109c0.623,1.894,0.87,3.896,1.624,5.751c0.462,1.024,1.132,1.955,1.324,3.087  c0.192,1.432-0.015,2.849-0.339,4.234c-0.369,1.54-1.131,3.041-2.387,3.942c-2.863,2.063-5.904,2.733-9.484,1.378  c-3.634-1.371-6.282-7.476-4.365-11.125c1.031-1.971,2.294-3.634,4.149-4.827c1.078-1.586-0.254-2.495-1.024-3.557  c-2.102-0.801-3.472,0.654-4.85,1.709c-1.887,1.455-3.28,3.434-4.889,5.181c-1.117,1.07-1.756,2.479-2.58,3.757  C189.731,127.654,189.894,128.185,189.932,128.731z M181.432,25.366c-1.008,0.084-1.324,0.793-1.517,1.624  c-0.023,0.37-0.039,0.739-0.062,1.109c0.608,7.291,1.84,14.474,3.38,21.619c0.462,2.117,1.055,4.196,2.063,6.136  c3.511,6.845,6.306,8.192,13.912,6.813c1.255-0.223,2.217-0.692,2.687-1.932C194.166,49.471,187.93,37.346,181.432,25.366z   M221.82,116.722c-0.631-2.148-1.547-4.181-2.795-6.044c-0.084-1.009-0.793-1.232-1.624-1.424c-2.502-0.616-4.989-1.27-7.406-2.187  c-1.14-0.439-1.971-1.494-3.265-1.578c-1.247,0-2.486,0-3.726,0c-1.563-1.024-2.818-0.2-4.065,0.669  c0.016,2.718-1.54,4.92-2.395,7.353c-1.208,3.388-3.326,6.375-4.334,9.847c1.555-0.447,2.71-1.432,3.703-2.656  c1.478-1.833,3.295-3.164,5.604-3.757c1.047,0.2,2.079,0.808,3.18,0.185c1.786-0.731,3.665-0.439,5.505-0.477  c0.208-0.008,0.423-0.016,0.624-0.023c0.947,0.323,1.708-0.408,2.602-0.416c2.549,0.385,4.989,1.208,7.468,1.894  C222.113,118.253,222.06,117.553,221.82,116.722z M220.111,109.223c0.393-2.395,0.508-4.789,0.331-7.198  c-0.062-0.894-0.531-1.363-1.463-1.232c-3.303,0.446-6.598,0.908-9.785,1.971c-1.34,0.455-2.225,1.286-2.464,2.726  c0.432,1.517,1.756,1.994,3.003,2.533c2.987,1.278,6.183,1.802,9.292,2.656C219.38,110.185,219.988,109.916,220.111,109.223z   M70.783,137.493c3.842,0.423,7.529-0.308,11.163-1.486c0.778-1.448,1.571-2.879,2.171-4.419c0.2-0.5-0.162-0.777-0.37-1.132  c-1.586-0.215-3.233,0.331-4.773-0.408c-0.123-0.146-0.215-0.131-0.277,0.054c-0.5,0.778-1.286,0.616-2.009,0.593  c-2.094-0.084-4.188-0.2-6.282-0.292C70.06,132.789,71.076,135.106,70.783,137.493z M204.922,83.778  c0.015-0.062,0.022-0.131,0.015-0.2c0.731-1.324-0.177-2.895,0.639-4.204c0.185-3.772,0.139-7.522-1.017-11.171  c-0.008,0.554-0.084,1.124-0.008,1.663c0.239,1.771-0.546,2.456-2.271,2.495c-1.848,0.038-3.696,0.277-5.543,0.362  c-3.479,0.169-3.818,0.485-3.818,3.888c0,0.554,0.038,1.117,0.008,1.671c-0.077,1.355,0.608,1.901,1.901,1.917  c2.726,0.031,5.451,0.069,8.1-0.754c1.193-0.37,1.74-0.069,1.693,1.247c-0.069,1.794-0.062,3.595-0.084,5.382  C205.591,85.464,204.898,84.563,204.922,83.778z M22.496,117.807c-2.602-0.77-3.388-1.763-3.742-4.458  c-0.416-3.087-1.017-6.151-1.363-9.246c-0.084-0.731-0.162-1.602-1.332-1.224c-0.37,0.885-0.347,1.794-0.193,2.725  c0.701,4.334,1.409,8.662,2.056,13.011c0.215,1.44,0.77,2.579,2.086,3.288c1.163,0.185,2.317,0.377,3.48,0.554  c0.701,0.115,1.547,0.601,1.994-0.315c0.377-0.816,0.771-1.755-0.138-2.548C25.028,117.992,23.558,118.115,22.496,117.807z   M204.883,89.082c-0.27-0.523,0.354-1.301-0.477-1.655c-1.147,6.444-3.049,12.665-5.466,18.731c1.401,0.069,2.741-0.208,4.065-0.669  C203.975,100.061,204.729,94.603,204.883,89.082z M25.144,117.661c-0.862-0.331-1.771-0.578-2.664-0.824  c-1.732-0.462-2.618-1.501-2.972-3.349c-0.816-4.388-1.601-8.753-0.87-13.242c-0.216,0.57-0.377,1.109-1.193,1.163  c-0.824,0.054-1.232,0.685-1.386,1.471c1.293,2.502,1.432,5.335,1.478,7.96c0.093,5.42,2.726,8.045,7.807,8.754  C26.491,118.823,26.43,118.146,25.144,117.661z M87.182,134.96c2.033-3.079,4.435-5.065,8.377-4.149  c0.285,0.069,0.608-0.039,0.916-0.062c-0.662-0.116-1.332-0.324-1.994-0.324c-3.572-0.015-7.16,0.016-10.732,0.031  c-0.654,1.833-2.155,3.396-1.802,5.551C84.395,137.563,85.519,137.462,87.182,134.96z M34.675,133.42  c0.585-2.148,1.186-4.289,1.771-6.429c-2.233,1.786-4.851,1.255-7.392,1.248C32.289,128.493,33.536,130.895,34.675,133.42z   M17.445,85.687c-0.847,3.85-0.523,4.581,2.317,5.235c0.123-0.655,0.208-1.332,0.377-1.979c0.377-1.409-0.085-2.233-1.57-2.417  C18.6,85.71,18.053,85.648,17.445,85.687z M20.871,83.093c-1.047-1.563-1.093-1.563-2.895-0.301  c-0.177,0.963-0.354,1.933-0.531,2.895c0.107,0.631,0.554,0.816,1.124,0.839C21.048,86.526,20.709,84.647,20.871,83.093z   M182.464,22.987c-0.862-1.216-2.264-1.101-3.295-1.701c0.015,1.932,0,3.873,0.747,5.705c0.654-0.393,1.47-0.646,1.517-1.624  C180.315,24.019,181.401,23.503,182.464,22.987z M21.557,80.044c-0.301,0.338-0.662,0.569-1.125,0.539  c-1.601-0.115-2.186,0.862-2.456,2.209c0.993-0.162,1.947,0.039,2.895,0.301C21.094,82.076,21.325,81.052,21.557,80.044z   M205.576,79.374c-1.409,1.216-0.4,2.802-0.639,4.204C205.892,82.284,205.545,80.798,205.576,79.374z M204.922,83.785  c-0.047,0.778-0.047,1.563-0.385,2.287c-0.039,0.454-0.084,0.908-0.131,1.354c0.162,0.547,0.316,1.101,0.477,1.655  C205.36,87.319,205.438,85.556,204.922,83.785z M132.498,89.906c2.895-0.393,5.805-0.146,8.699-0.478  c2.941-0.331,6.06-0.754,8.854,0.031c3.48,0.985,6.359,3.388,9.084,5.82c0.362,1.563-0.393,2.703-1.771,2.972  c-3.557,0.685-7.091,1.693-10.778,1.186c-0.678-0.031-1.324-0.023-1.956,0.369c-2.187,1.363-2.249,1.524-0.292,3.203  c1.023,0.885,2.217,1.578,2.525,3.041c2.925,1.316,4.357,3.826,5.374,6.667c0.539,0.277,1.186,0.177,1.725,0.462  c1.208,0.616,1.208,0.608,1.555-0.747c0.107-2.179,0.523-4.327,0.708-6.49c-0.008,0.393-0.377,1.001,0.254,1.07  c0.862,0.092-0.116,0.6,0.254,0.724c-0.239,0.185-0.231-0.208-0.439-0.162c-0.3,0.069-0.423,0.262-0.393,0.516  c0.208,1.617-0.601,3.141-0.393,4.743c-0.5,1.848-0.177,3.626,0.431,5.389c1.586,0.716,3.21,0.523,4.835,0.162  c0.778-1.309,1.717-2.495,1.825-4.157c0.339-4.643,0.416-9.285,0.369-13.927c-0.015-1.609,0.139-3.226,0.17-4.827  c0.107-6.313,0.77-12.611,0.477-18.939c-0.231-1.602-1.524-1.748-2.564-1.432c-0.808,0.247-1.67,0.408-2.363,0.701  c1.278,0.023,2.433-1.093,3.911-0.739c0.562,0.139,0.785-0.315,0.955-0.847c0.508-1.671,0.578-3.372,0.524-5.082  c-0.193-2.787,0.615-5.536,0.308-8.315c-0.4-3.626-0.277-7.275-0.678-10.901c-0.47-4.234-0.554-8.5-1.108-12.727  c-0.093-0.677,0.077-1.57-0.985-1.717c-0.216-1.863-1.34-2.279-3.095-2.287c-8.869-0.023-17.738-0.254-26.607-0.677  c-0.693-0.031-1.355,0.046-1.971,0.385c-0.393,0.262-0.477,0.693-0.469,1.078c0.023,2.155-0.131,4.304-0.162,6.459  c-0.077,6.891-0.116,13.781-0.008,20.672c-0.008,0.454,0.039,0.893-0.023,1.362c-0.423,3.58-0.939,7.152,0.031,10.748  c0.446,1.655,0.677,3.372,1.031,5.05c0.293,1.347,0.478,2.764-0.2,4.003c-0.539,1.001-0.692,2.025-0.831,3.087  c0,1.208,0.015,2.425,0.023,3.634C130.28,89.66,131.458,90.052,132.498,89.906z M95.081,89.868c3.511,0.315,7.029,0.062,10.54,0.138  c2.664-0.069,5.327,0.131,7.983-0.123c0.231-0.107,0.385-0.277,0.478-0.516c-0.1-2.133,0.485-4.196,0.739-6.29  c-0.239-1.232-0.508-2.495-0.27-3.695c0.716-3.634,0.292-7.268,0.262-10.902c-0.016-1.078-0.054-2.148-0.039-3.226  c0.108-5.982,0.308-11.964,0.323-17.946c0.092-1.386,0.139-2.802,0.039-4.149c-0.1-1.286,0.5-2.81-0.701-3.919  c-0.031-1.786-0.084-3.587-0.077-5.381c0-1.132-0.447-1.732-1.625-1.794c-1.794-0.084-3.587-0.277-5.381-0.339  c-6.067-0.208-12.133-0.331-18.2-0.6c-1.509-0.062-1.979,0.462-2.033,1.871c-0.208,5.751-0.462,11.51-0.731,17.269  c-0.192,4.142-0.438,8.284-0.608,12.434c-0.2,4.881-0.346,9.777-0.508,14.674c-0.031,0.878,0.031,1.74,0.785,2.371  c3.681,0.993,5.667,3.511,6.452,7.122c0.185,0.839,0.423,1.67,0.631,2.502C93.695,89.929,94.403,89.806,95.081,89.868z   M162.985,72.837c0.008,1.602,0.454,1.948,1.986,1.54c3.465-0.924,6.868-2.079,10.301-3.087c0.47-0.131,1.001-0.315,1.24-0.662  c0.97-1.37,2.056-2.225,3.85-1.578c0.254,0.092,0.593-0.139,0.685-0.493c0.101-3.865-0.115-7.714-0.7-11.548  c-2.525-1.124-5.281-1.217-7.915-1.871c-2.826-0.701-4.003-2.017-4.181-4.896c-0.154-2.402-0.408-4.796-0.508-7.206  c-0.092-2.395-0.2-4.812-0.669-7.183c-0.124-0.616,0.031-1.448-0.97-1.509c-2.225-1.517-4.011-1.063-4.488,1.132  c0.077,1.17,0.162,2.348,0.238,3.511c0.654,10.232,2.087,20.433,1.24,30.719C162.816,70.736,162.97,71.791,162.985,72.837z   M116.546,50.657c0.4,0.369,0.839,0.423,1.354,0.238c1.009-0.377,2.041-0.231,3.072-0.046c2.71,0.885,2.872,1.093,2.887,3.949  c0,0.5-0.015,0.993-0.015,1.486c0.015,1.594-0.662,2.603-2.317,2.81c-0.239,0.023-0.485,0.046-0.731,0.054  c-0.97,0.031-1.902,0.154-2.025,1.378c-0.115,1.17,0.562,1.702,1.64,1.994c1.74,0.462,3.334,1.339,4.989,2.048  c3.28,1.409,3.727,1.155,4.011-2.41c0.023-0.247-0.007,0.062-0.022-0.185c-0.324-4.697-0.046-9.408-0.131-14.112  c0.038-1.771,0.1-3.564,0.03-5.313c-0.038-1.078,0.485-2.456-0.731-3.333c-0.03-1.609-0.123-3.218-0.092-4.827  c0.038-1.363-0.555-1.894-1.871-1.91c-2.779-0.054-5.574,0.023-8.354-0.331c-1.463-0.177-1.955,0.547-1.955,1.956  c0.007,5.02-0.062,10.039-0.093,15.059C115.652,49.81,116.007,50.257,116.546,50.657z M179.269,48.355  c-0.624-4.904-1.255-9.809-1.878-14.712c-0.408-0.116-0.839-0.385-1.224-0.339c-2.879,0.377-5.767,0.192-8.653,0.3  c-0.585,0.016-1.063,0.262-1.409,0.739c0.393,5.62,0.77,11.248,1.186,16.869c0.192,2.541,1.225,3.934,3.649,4.542  c2.579,0.646,5.212,1.07,7.83,1.57c0.546,0.108,1.116,0.131,1.578-0.315C179.984,54.122,179.631,51.242,179.269,48.355z   M128.355,60.812c-0.007,1.186,0.724,1.255,1.586,0.616c0-9.516,0-19.024,0-28.532c-1.093-0.478-1.047,0.262-1.124,0.985  c-0.177,1.778,0.154,3.572-0.262,5.335c-0.03,2.957-0.062,5.92-0.1,8.877C128.155,52.328,128.371,56.57,128.355,60.812z   M114.182,52.481c-0.016,1.363,0.624,1.786,1.871,1.14c0.693-1.486,0.37-2.941-0.154-4.381c-0.031-1.239-0.092-2.479-0.077-3.719  c0.031-3.842,0.116-7.683,0.139-11.525c0-0.608,0.316-1.655-0.57-1.709c-1.047-0.062-0.585,1.024-0.646,1.602  c-0.139,1.778,0.107,3.588-0.308,5.351c-0.046,2.71-0.108,5.413-0.154,8.115C114.043,49.063,114.205,50.772,114.182,52.481z   M114.937,55.538c-0.008,1.347-0.039,2.702,0,4.05c0.054,2.256,0.146,2.333,2.44,2.594c1.602-1.047,1.709-1.339,0.785-2.849  c-0.546-0.908-0.77-1.894-1.016-2.91c-0.531-2.156-0.231-4.304-0.154-6.452c-0.262-0.262-0.539-0.539-0.801-0.809  c-0.1,0.023-0.192,0.046-0.292,0.077c-0.023,1.34-0.046,2.687-0.077,4.026C115.175,53.883,114.952,54.653,114.937,55.538z   M162.739,118.677c5.505,0.555,11.079,0.77,16.083,3.58c0.531-1.501,0.254-3.064,0.339-4.596c0.477-8.684,0.947-17.376,1.424-26.069  c-0.546-1.262-1.725-1.655-2.864-2.147c-2.872-1.232-3.557-3.11-2.271-6.075c0.662-1.063,1.717-0.716,2.617-0.624  c1.055,0.1,1.756-0.2,2.171-1.193c0.131-0.377,0.146-0.862,0.077-1.132c-0.331-1.394,0.254-3.072-1.055-4.165  c-1.347-1.124-2.864-2.056-4.635-2.194c-3.279-0.27-6.559-0.046-9.808,0.462c-0.87,0.131-1.91,0.27-2.009,1.524  c-0.301,11.002-0.547,22.011-0.924,33.005c-0.101,2.926,0.254,5.99-1.409,8.685C160.83,119.008,161.908,118.592,162.739,118.677z   M156.072,117.738c-1.532,0.015-0.778,1.224-0.909,1.886c-0.223,1.147-0.022,2.749-0.877,3.272c-0.832,0.523-1.717-0.917-2.61-1.44  c-0.508-0.3-0.901-0.724-1.363-1.063c-0.724-0.762-1.324-0.254-1.948,0.169c-1.309,0.885-2.779,1.286-4.342,1.409  c-1.717,0.131-2.925-0.662-3.873-2.017c-0.077-0.116-0.354-0.069-0.539-0.069c-0.185,2.156-0.369,4.319-0.539,6.475  c-0.069,0.816-0.185,1.563-0.731,2.248c-1.763,2.21-3.642,4.096-6.844,3.364c-0.27-0.062-0.716-0.208-0.985,0.37  c5.566,0.993,11.109,1.609,16.66,2.071c8.284,0.685,16.537,0.77,24.421-2.31c6.944-2.71,6.652-2.141,7.229-9.847  c-0.162-2.51-0.231-2.533-2.687-2.664c-1.286-0.077-2.633-0.116-3.819-0.539c-3.865-1.371-7.853-1.24-11.841-1.316  C159.013,117.738,157.542,117.738,156.072,117.738z M125.415,109.261c-0.139,0.916-0.031,1.855-0.077,2.771  c-0.031,0.531,0.185,1.224-0.478,1.47c-0.523,0.2-0.878-0.338-1.224-0.669c-1.286-1.178-2.656-2.179-4.458-2.456  c-0.97-0.146-1.463-0.862-1.586-1.817c-0.108-0.916-0.046-1.848-0.077-2.771c-0.031-0.978-0.031-1.971-0.908-2.664  c-0.185-0.023-0.362-0.008-0.531,0.062c-1.116,1.324-0.716,2.926-0.785,4.435c-0.116,2.595-2.271,3.75-4.512,2.395  c-0.362-0.223-0.555-0.678-1.009-0.77c-2.209,1.063-4.527,1.409-6.96,1.224c-1.586-0.123-3.156-0.446-4.773-0.354  c-0.862,0.054-1.701,0.1-2.263,0.901c0.138,1.786,0.192,3.595,0.447,5.366c0.916,6.513,4.727,10.063,11.217,10.378  c2.656,0.131,5.336-0.123,7.984,0.077c5.635,0.416,10.832-5.112,11.102-10.386c0.146-2.656,0.062-5.328,0.077-7.992  C125.692,107.968,125.515,108.622,125.415,109.261z M113.728,102.509c0.97-0.524,1.163-1.401,1.17-2.402  c0.031-2.317-0.054-4.634,0.2-6.944c0.008-1.07-0.554-1.855-1.255-2.587c-0.701-0.315-1.448-0.185-2.171-0.192  c-2.81-0.054-5.628,0.131-8.422-0.354c-1.055-0.039-2.117,0.023-3.165-0.023c-0.3-0.3-0.692,0-0.924,0.031  c-1.509,0.262-3.11-0.408-4.534,0.462c-1.124-0.054-1.309,0.5-1.147,1.501c0.424,2.625,0.87,5.251,1.078,7.892  c0.123,1.578,0.785,1.886,2.209,1.894c4.011,0.007,8.015,0.169,12.026,0.262C110.34,103.171,112.072,102.463,113.728,102.509z   M151.345,120.655c0.585-0.646,1.34-0.985,2.141-1.293c0.823-0.316,1.57-0.762,1.139-1.871c-1.016-1.208-0.847-2.656-0.793-4.08  c-0.092-0.701-0.839-0.993-1.032-1.632c-0.747-2.787-2.41-4.889-4.896-6.329c-0.616-0.431-1.255-0.839-1.901-1.193  c-1.994-1.085-4.735-0.47-5.543,1.186c-0.447,4.812-0.693,9.624-0.847,14.443c-0.139,2.094,1.109,2.81,2.926,2.995  c2.094,0.216,4.065-0.084,5.882-1.178c0.531-0.316,1.009-0.739,1.694-0.593C150.452,120.771,151.021,121.056,151.345,120.655z   M130.719,91.6c-0.277,1.679-0.231,3.349-0.031,5.035c0.785,0.939,1.886,0.762,2.91,0.816c5.097,0.254,10.163-0.424,15.236-0.377  c3.057,0.039,6.066-0.354,9.085-0.685c1.008-0.116,1.763-0.447,2.217-1.378c-0.246-0.693-0.847-1.055-1.401-1.439  c-2.202-1.501-4.435-2.949-6.621-4.473c-1.186-0.832-2.409-1.032-3.849-0.955c-6.313,0.346-12.626,0.578-18.932,0.847  C129.818,89.845,130.958,90.36,130.719,91.6z M115.76,62.813c0.2,0.601,0.754,0.909,1.117,1.355  c1.678,0.878,3.187,2.048,4.865,2.933c1.655,0.886,2.61,2.241,2.811,4.104c0.393,3.588,1.016,7.137,1.848,10.648  c0.523,0.616,1.078,0.816,1.686,0.108c0.023-0.801,0.031-1.602,0.077-2.395c0.031-0.478-0.038-1.124,0.632-1.147  c0.831-0.03,0.708,0.716,0.7,1.232c-0.038,1.901-0.123,3.803-0.185,5.705c0.339-0.57,0.215-1.432,0.985-1.709  c1.471-0.508,1.494-1.594,1.286-2.864c-1.047-6.405-2.456-12.788-1.64-19.355c-1.394,0.354-1.509-0.485-1.501-1.54  c0.023-3.926,0.016-7.86,0.016-11.794c-0.508,2.132-0.239,4.311-0.301,6.467c-0.084,2.771-0.123,5.551,0.093,8.322  c0.092,1.132-0.3,1.825-1.632,1.163c-1.494-0.731-3.064-1.347-4.542-2.11c-0.754-0.385-2.271-0.092-2.132-1.278  c0.131-1.047,1.578,0,2.255-0.616c-0.223-2.287-0.2-4.573-0.215-6.868c-0.015-0.931,0.3-2.032-0.978-2.471  c0.224-0.069,0.439-0.162,0.47-0.431c-1.455-0.57-2.979-0.215-4.48-0.3c-0.562,0.478-0.777,1.101-0.785,1.81  c0,1.485,0,2.972,0.015,4.458c0.023,1.401-0.2,2.872,1.248,3.849c0.423,0.285,0.277,0.77-0.108,1.117  C117.092,61.998,115.822,61.805,115.76,62.813z M111.672,109.554c1.286-1.293,2.102-2.849,2.51-4.619  c0.169-0.716,0.069-1.332-0.485-1.84c-0.971-0.685-2.095-0.354-3.149-0.431c-1.416-0.084-2.856,0.069-4.288,0.008  c-2.817-0.062-5.651,0.039-8.469-0.162c-0.924-0.062-1.971-0.377-2.779,0.446c0.254,2.687,0.508,5.374,0.762,8.061  c2.479,0.123,4.951,0.315,7.421,0.354c2.317,0.031,4.758,0.454,6.714-1.363C110.656,110.493,111.188,110.046,111.672,109.554z   M180.97,82.323c0.031-0.231,0.062-0.447,0.092-0.67c0.585-0.809,0.262-1.725,0.323-2.595c-0.339-3.288-0.139-6.583-0.123-9.877  c0-0.231-0.077-0.431-0.216-0.608v-0.016c-1.793-0.585-3.387-0.338-4.75,1.086c-0.478,0.508-1.163,0.662-1.817,0.87  c-2.356,0.716-4.719,1.439-7.075,2.171c-4.081,1.255-4.081,1.255-4.312-2.979c-0.4,1.001-0.277,2.056-0.346,3.095  c-0.031,0.547,0,1.155-0.716,1.332c-1.532,0.4-3.064,0.801-4.604,1.147c-0.5,0.115-1.193-0.247-1.401,0.492  c-0.077,0.301,0.062,0.755,0.262,1.024c0.439,0.593,0.986,0.169,1.509,0.062c1.663-0.323,3.234-1.224,5.012-0.809  c3.888-1.193,7.906-1.362,11.895-1.039c3.372,0.27,4.789,2.187,4.812,5.512c0.007,0.37-0.008,0.739-0.008,1.109  C179.507,82.908,180.016,83.085,180.97,82.323z M126.685,107.175c0.054-3.149,0.054-3.141-3.133-3.311  c-0.478-0.016-0.955-0.131-1.432-0.2c-0.554-0.985-1.517-0.377-2.263-0.616c-1.063,0.293-2.372-0.639-3.257,0.608  c0,1.855,0.031,3.711-0.016,5.574c-0.031,1.424,0.5,2.248,2.033,2.202c1.601-0.054,2.841,0.747,3.98,1.748  c0.601,0.531,1.147,1.14,1.779,1.625c0.462,0.347,0.901,1.07,1.563,0.731c0.546-0.277,0.3-1.008,0.339-1.547  c0.123-1.84-0.247-3.711,0.323-5.528C126.631,108.029,126.677,107.606,126.685,107.175z M113.982,87.881  c0.039,0.854-0.162,1.748,1.216,1.771c1.271,0.023,2.133-0.27,2.294-1.686c0.085-0.685-0.192-1.463,0.485-2.225  c1.679,1.732,3.465,3.203,5.705,3.972c0.685,0.016,1.362-0.015,2.032,0.069c1.778,0.223,2.579-0.485,2.349-2.287  c-0.616-1.147-1.548-1.963-2.572-2.741c-2.448-1.878-5.035-3.58-7.314-5.682c-1.14,0.031-1.617-1.047-2.472-1.486  c-1.154-0.37-0.708-1.324-0.746-2.086c-0.139-2.31,0.277-4.65-0.354-6.929c-0.216-0.146-0.408-0.139-0.601,0.039  c-0.107,4.843-0.231,9.677-0.347,14.52C114.251,84.679,113.897,86.295,113.982,87.881z M116.053,93.855  c0.755-0.015,1.109,0.516,1.617,1.001c2.609,2.533,4.665,5.72,8.199,7.214c0.377-0.131,0.685-0.377,0.7-0.77  c0.108-3.349,0.432-6.69,0.046-10.04c-0.262-0.254-0.523-0.477-0.916-0.485c-2.779,0.154-5.52-0.624-8.307-0.4  c-1.001,0.016-2.018-0.062-3.026,0.023c-0.346,0.062-0.662,0.162-0.778,0.562c0.139,0.739,0.262,1.47,0.4,2.209  C114.552,93.763,115.452,93.371,116.053,93.855z M115.868,93.925c-0.154,2.934-0.755,5.897,0.462,8.769  c0.516,0.285,0.97,0.292,1.309-0.285c0.585-0.485,1.294-0.316,1.948-0.323c2.094-0.023,4.195-0.016,6.282-0.016  c-2.01-2.063-3.988-4.149-6.028-6.167c-1.001-0.97-1.794-2.202-3.21-2.679C116.207,93.286,115.891,93.54,115.868,93.925z   M128.071,83.916c-0.084-0.361-0.254-0.739-0.516-0.947c-2.94-2.364-5.92-4.681-9.062-6.783c-0.623-0.423-1.008-0.162-1.347,0.354  c-0.646,1.317-0.092,2.441,0.578,3.542c2.31,1.755,4.596,3.549,6.944,5.251c1.078,0.785,1.963,1.909,3.396,2.163  C128.063,86.303,128.063,85.109,128.071,83.916z M180.701,89.837c1.163-5.182-1.932-6.459-5.974-7.129  c-1.778,2.34-1.009,5.982,1.547,7.137c1.417,0.646,2.872,1.17,4.311,1.747C180.624,91.007,180.662,90.422,180.701,89.837z   M143.961,101.285c0.978-0.547,1.932-0.431,2.81-0.654c0.169-1.694-1.239-1.378-1.971-1.24c-2.957,0.546-5.959,0.554-8.923,0.939  c-0.832,0.832-0.339,1.494,0.208,2.233c1.078,1.463,2.802,1.833,4.281,2.625c0.023,0.092,0.046,0.177,0.092,0.254  c2.479-1.255,4.958-0.716,7.445,0.008C146.603,104.08,145.309,102.709,143.961,101.285z M134.6,100.146  c-1.94,0.3-2.887-0.531-3.01-2.425c-0.046-0.547-0.493-0.809-0.824-1.163c-0.016-1.647-0.031-3.311-0.046-4.958  c-0.562,3.696-0.208,7.414-0.277,11.125c-0.031,1.54,0.662,2.04,2.132,2.071c2.602,0.054,5.189,0.254,7.792,0.393  c-1.34-1.555-3.226-2.518-4.481-4.173C135.893,100.092,135.162,100.061,134.6,100.146z M113.643,89.459  c0.854,0.832,1.963,0.801,3.034,0.916c2.117,0.231,4.149-0.239,6.197-0.646c0.27-0.008,0.539-0.016,0.809-0.016  c-1.778-1.678-3.542-3.356-5.335-5.004c-0.477-0.446-1.016-1.239-1.678-0.924c-0.832,0.4-0.277,1.309-0.247,2.002  c0.015,0.377,0.131,0.739,0.124,1.108c-0.016,0.832,0.169,1.94-1.078,1.956c-1.124,0.023-1.047-1.009-1.093-1.794  c-0.084-1.34,0.177-2.733-0.716-3.927C113.651,85.24,113.651,87.35,113.643,89.459z M21.995,94.741  c1.17,0.739,2.879,0.508,4.088-0.478c0-0.739-0.03-1.479,0.008-2.225c0.077-1.524-0.831-2.233-2.133-2.594  c-0.724-0.208-1.647-0.932-2.163,0.007c-0.616,1.109-1.602,2.325-0.569,3.75C20.863,94.017,21.464,94.402,21.995,94.741z   M20.178,96.781c0.169,1.016,0.323,2.079,1.793,1.263c0.432-0.016,0.862-0.031,1.294-0.031c2.656-0.023,2.81-0.169,2.864-2.825  c0-0.308-0.031-0.616-0.046-0.924c-1.701,0.016-3.464,0.315-4.857-1.063C19.939,94.117,20.217,95.496,20.178,96.781z   M125.923,91.269c0.231,0,0.462,0,0.693-0.008c-0.154-1.078-0.97-1.085-1.771-1.124c-1.031-0.046-2.063,0.077-3.064-0.285  c-2.71-0.493-5.451-0.092-8.168-0.223c-2.625,0-5.243,0-7.853,0c-1.601,0-3.195,0-4.796,0.008c-0.601,0-1.186,0.031-0.754,0.908  c0.955,0.016,1.925,0.031,2.879,0.054c0.716,0.301,1.463,0.124,2.202,0.146c3.01,0.1,6.036-0.177,9.046,0.146  c0.993,0.038,1.979,0.077,2.964,0.115C120.164,91.361,123.059,90.861,125.923,91.269z M23.696,102.063  c1.887,0.123,1.863-1.17,2.041-2.395c0.231-1.547-0.885-1.285-1.779-1.309c-0.677-0.031-1.362,0.016-1.986-0.315  c-0.6-0.416-1.201-0.839-1.793-1.263C19.208,100.038,20.447,101.832,23.696,102.063z M113.62,102.163  c-1.617-0.031-3.218-0.069-4.827-0.115c-0.008,0.077-0.023,0.138-0.077,0.192c-0.593,0.108-1.209-0.008-1.794,0.069  c-0.478,0.069-1.016,0.154-0.754,0.877c1.462,0.031,2.918,0.046,4.38,0.069c1.748,0.062,3.488,0.686,5.228,0.377  c1.401-0.254,2.772-0.277,4.158-0.069c0.724,0.031,1.455,0.069,2.187,0.1c0.985-0.023,1.971-0.031,2.972-0.085  c0.4-0.023,1.016,0.101,1.07-0.462c0.077-0.754-0.639-0.624-1.078-0.631c-2.479-0.054-4.966-0.054-7.445-0.077  c-0.339-0.008-0.677-0.016-1.016-0.016C115.699,101.3,114.651,101.801,113.62,102.163z M180.97,82.323  c-0.585-0.031-1.085-0.231-1.463-0.693c-0.97,0.3-1.948-0.031-2.925,0c-0.824,0.023-1.617,0.054-1.855,1.078  c0.823,0.531,1.594,1.263,2.494,1.571c2.733,0.924,3.988,2.656,3.48,5.559C181.332,87.35,180.909,84.833,180.97,82.323z   M128.086,81.961c-0.361-0.239-0.716-0.47-1.07-0.701c-2.463-3.557-6.305-5.313-9.731-7.622c-0.2-0.008-0.4-0.008-0.601,0.008  c-0.447,0.131-0.701,0.454-0.877,0.87c0.308,0.947,0.139,2.402,1.901,1.902c0.639,0.385,1.332,0.693,1.909,1.147  c2.749,2.21,5.436,4.504,8.454,6.352C128.079,83.262,128.079,82.615,128.086,81.961z M97.098,102.132  c-0.801-0.008-1.648-0.069-2.086,0.824c3.719,0.085,7.445,0.154,11.156,0.231c0.693-0.754,1.694-0.646,2.548-0.947  C104.843,102.201,100.963,102.155,97.098,102.132z M106.075,89.575c-0.123-0.016-0.231-0.039-0.339-0.062  c-4.196-0.046-8.392-0.093-12.596-0.146c0.231,0.724,0.939,0.824,1.486,1.132c1.855,0.015,3.718,0.031,5.582,0.046  c1.725-1.37,3.757-0.362,5.605-0.739C105.906,89.729,105.982,89.652,106.075,89.575z M181.332,81.63  c0.454-4.35,0.362-8.7,0.054-13.05c-0.115,0-0.23-0.008-0.339-0.008c-0.022,0.146-0.038,0.285-0.062,0.431  c-0.254,3.311-0.192,6.621-0.03,9.932c0.03,0.901,0.069,1.809,0.107,2.718C181.155,81.637,181.247,81.63,181.332,81.63z   M181.755,78.173c-0.146-3.195,0.447-6.421-0.37-9.593c-0.023,4.35-0.03,8.7-0.054,13.05  C181.94,80.537,181.81,79.335,181.755,78.173z M122.874,89.729c-3.064-0.593-6.159-0.162-9.231-0.27l-0.023,0.008  c-0.085,0.046-0.177,0.092-0.262,0.139c0.077,0.054,0.162,0.107,0.254,0.162c2.718,0.023,5.443,0.054,8.168,0.084  C122.143,89.813,122.505,89.775,122.874,89.729z M78.952,127.1c-1.04,0.924-0.762,1.956-0.254,3.002  c0.092,0,0.185-0.015,0.277-0.054C78.959,129.063,78.959,128.085,78.952,127.1z M52.675,145.923c5.42-0.061,9.808-4.449,9.847-9.87  c0.046-5.474-4.427-9.978-9.909-9.985c-5.512-0.008-9.917,4.419-9.901,9.955C42.729,141.55,47.186,145.978,52.675,145.923z   M67.165,124.551c-0.277-1.263-1.248-1.863-2.31-2.364C65.286,123.304,66.002,124.143,67.165,124.551z M202.25,119.947  c0.023,0.208,0.046,0.408,0.062,0.624c0.37,1.347-0.354,2.387-1.001,3.441c-1.354,2.179-1.832,4.419-0.692,6.891  c1.255,2.733,3.78,4.065,7.398,3.772c2.486-0.208,4.858-2.34,5.428-4.943c0.208-0.978,0.323-1.979-0.678-2.679  c-1.077-0.146-0.993,0.793-1.293,1.378c-0.339,0.801-0.724,1.57-1.271,2.232c-1.17,1.394-2.656,1.971-4.458,1.479  c-1.786-0.485-2.787-1.717-3.095-3.519c-0.115-0.678-0.224-1.494,0.393-1.894c0.686-0.431,0.777,0.578,1.239,0.785  c0.247,0.108,0.493,0.085,0.724,0.108c1.563,0.493,2.033-0.985,2.957-1.647c0.038-0.192,0.069-0.393,0.077-0.585  c0.1-0.57-0.131-1.086-0.262-1.609c-0.162-0.408-0.339-0.809-0.239-1.247c-0.315-0.531-0.177-1.14-0.292-1.694  c-0.023-0.447-0.47-0.685-0.554-1.093c-0.085-0.5-0.131-1.024-0.516-1.417c-0.162-0.3-0.493-0.493-0.555-0.855  c-0.107-0.554-0.478-0.9-0.924-1.193c-0.085-0.023-0.169-0.054-0.246-0.077c-0.986,0.247-1.956,0.493-2.934,0.739  C202.158,117.853,202.65,118.785,202.25,119.947z M200.771,121.063c-2.933,2.571-3.957,6.498-2.671,10.132  c1.278,3.619,4.627,6.044,8.484,6.151c5.351,0.154,10.355-4.442,9.393-10.979c-0.27-0.67-0.608-1.155-1.386-0.57  c-0.146,1.64-0.262,3.28-0.863,4.843c-1.731,4.527-7.29,6.236-11.24,3.426c-3.488-2.471-4.027-7.375-1.178-10.825  c0.785-0.947,1.702-1.824,1.294-3.241c-0.116-0.023-0.239-0.038-0.354-0.054C201.742,120.324,201.226,120.663,200.771,121.063z   M214.922,123.335c-0.538-0.57-1.154-0.647-1.848-0.3c-1.339,0.354-2.494,1.201-3.864,1.501c-0.646,0.177-1.217,0.485-1.671,1.001  c-0.885,0.5-1.771,1.008-2.664,1.524c-1.255,0.546-0.823,1.501-0.593,2.425c0.37,0.4,0.909,0.608,1.24,0.2  c1.07-1.348,1.232,0.046,1.709,0.5c0.662,0.524,1.27,0.116,1.901-0.092c0.97-0.338,1.802-1.039,2.872-1.147  c0.223-0.5,0.438-1.009,0.669-1.509c1.363,0.862,1.895,0.046,2.264-1.117c0.362-0.331,0.701-0.177,1.04,0.046  C216.101,125.19,216.246,124.02,214.922,123.335z M213.429,116.213c-0.862-0.339-1.755-0.285-2.648-0.231  c0,1.725-0.285,3.464,0.462,5.127c0.601,0.862,0.162,2.463,1.817,2.594c0.623-0.123,1.247-0.246,1.862-0.369  C214.537,120.94,213.197,118.738,213.429,116.213z M210.526,115.975c-2.025-0.008-4.073-0.385-6.074,0.231l0.115,0.123  c0.523,0.639,1.54,0.316,2.025,1.024c0.308,0.231,0.693,0.347,0.909,0.701c0.308,0.308,0.2,0.708,0.246,1.078  c0.077,0.4-0.139,0.839,0.162,1.201c0.254,0.431,0.3,0.939,0.539,1.378c0.208,0.416,0.378,0.854,0.362,1.339  c-0.008,0.308,0.046,0.608,0.107,0.901c-0.015,0.47,0.054,0.916,0.424,1.247c1.347-0.223,2.595-0.701,3.719-1.494  c-0.255-1.008-0.509-2.017-0.755-3.025C211.427,119.208,211.258,117.483,210.526,115.975z M210.78,115.982  c-0.084-0.008-0.169-0.008-0.254-0.008c0.162,1.732,0.531,3.38,1.778,4.704C212.043,119.031,211.512,117.476,210.78,115.982z   M202.019,73.931c-1.109,0.154-2.217,0.208-3.333,0.323c-2.317,0.224-2.88,0.854-2.687,3.041c0.177,1.94,0.939,2.518,3.172,2.333  c0.924-0.077,1.848-0.223,2.764-0.37c1.809-0.3,3.103-1.032,2.617-2.917C204.56,73.577,204.544,73.584,202.019,73.931z   M84.387,133.975c-0.578-0.069-0.962,0.239-1.04,0.809c-0.077,0.493,0.2,0.854,0.693,0.932c0.593,0.084,0.924-0.247,1.078-0.917  C85.072,134.429,84.903,134.036,84.387,133.975z M144.446,100.33c0.755-0.262,1.586-0.062,2.325,0.301  c3.249,0.107,6.39-0.655,9.57-1.094c3.565-0.492,3.903-0.893,3.795-4.527c-1.894,0.254-3.788,0.593-5.689,0.747  c-7.876,0.601-15.783,0.739-23.682,0.8c-0.008,0.909,0.023,1.825-0.031,2.741c-0.084,1.632,0.739,2.187,2.256,2.017  c0.963-0.108,1.933-0.2,2.895-0.3C138.749,100.885,141.644,101.3,144.446,100.33z M154.363,117.776  c-0.431,2.147-0.693,2.348-2.826,2.279c-0.238-0.008-0.454,0.154-0.67,0.292c-0.254,0.254-0.508,0.5-0.754,0.762  c1.093,0.793,2.187,1.594,3.303,2.371c1.447,1.009,1.701,0.901,1.932-0.808c0.231-1.648,0.215-3.326,0.724-4.935  c-0.123-1.848-0.254-3.711-0.385-5.574c-0.108-0.262-0.231-0.262-0.346,0.008c-1.14,1.801-1.671-0.408-2.549-0.393  c0.108,0.624,0.2,1.247,0.293,1.871C154.271,114.797,153.739,116.459,154.363,117.776z M156.241,108.207  c0.162,0.924,0.246,1.378,0.331,1.832c0.185-1.609,0.901-3.149,0.431-4.966c-0.116,0.37-0.124,0.57-0.223,0.701  c-0.37,0.508-0.277-0.062-0.293-0.162c-0.131-0.57,0.139-1.201-0.338-1.932c-0.277,2.964-0.546,5.728-0.808,8.492l0.177-0.008h0.169  C155.856,111.009,156.01,109.846,156.241,108.207z M115.591,68.95c0.662-1.64,0.693-3.403,0.955-5.127  c-0.124-0.393-0.516-0.724-0.309-1.209c0.601-0.285,0.924-0.801,1.124-1.409c-1.262,0.331-1.509-0.447-1.517-1.44  c-0.007-2.163-0.007-4.327-0.023-6.498c-1.109,0.293-1.601-0.077-1.555-1.278c0.069-1.54,0.016-3.087,0.016-4.635  c-0.354,0.754-0.323,1.571-0.323,2.372c0.015,6.297,0.03,12.587,0.046,18.885c0.115-0.023,0.231-0.023,0.354-0.023  C114.698,68.95,115.083,69.181,115.591,68.95z M105.736,89.514c0.023,0.1,0.046,0.2,0.077,0.292c2.602-0.015,5.204-0.03,7.799-0.038  c0-0.1,0.008-0.2,0.008-0.3C110.995,89.482,108.361,89.506,105.736,89.514z M124.753,56.916c-0.108-1.463-0.108-2.949,0.015-4.411  c0.123-1.563-0.57-2.125-2.001-2.125c-0.432,0-0.862-0.077-1.294-0.108c-0.908,0.046-1.816,0.1-2.725,0.146  c2.063,0.062,2.463,1.301,2.386,3.034c-0.077,1.547-0.007,3.095,0.023,4.65c0.023,0.809,0.023,1.655,1.039,1.94  C124.291,60.011,124.891,58.841,124.753,56.916z M110.764,111.409c1.224-0.016,2.456,0,3.68,0c1.24,0,1.763-0.67,1.763-1.855  c0-1.963,0.023-3.919,0.03-5.89c-0.877-0.423-1.755-0.331-2.641-0.046c-0.477,2.564-1.686,4.704-3.688,6.39  C109.509,110.894,109.67,111.417,110.764,111.409z M116.422,103.648l0.177,0.008c1.108-0.031,2.225-0.062,3.333-0.092  c-3.11-0.654-6.259-0.285-9.385-0.308c1.017,0.123,2.033,0.239,3.049,0.362c0.878,0.016,1.763,0.031,2.641,0.046L116.422,103.648z   M116.63,93.224c-0.131-0.662-0.262-1.355-1.132-1.393c-0.909-0.046-1.132,0.747-1.509,1.339c-0.022,0.739-0.03,1.47-0.062,2.217  c-0.092,2.256,0.454,4.55-0.308,6.775c0.962,0.547,2.002,0.193,3.002,0.231C116.623,99.337,116.63,96.281,116.63,93.224z   M113.589,90.961c0.247-0.023,0.493-0.046,0.747-0.069c-3.734-0.686-7.491-0.3-11.248-0.293  C106.583,91.03,110.094,90.807,113.589,90.961z M154.224,117.799c-0.277,0.346-0.631,0.624-1.093,0.601  c-1.394-0.077-1.986,0.739-2.264,1.948c0.678,0.516,1.371,1.024,2.048,1.532c1.04,0.777,1.571,0.423,1.632-0.77  c0.046-1.093,0.008-2.194,0.016-3.295C154.455,117.646,154.348,117.646,154.224,117.799z M153.085,113.649  c-0.116,0.731-0.154,1.486-0.37,2.194c-0.438,1.424,0.162,1.956,1.509,1.956c0.116,0,0.231,0,0.339,0.015  C155.24,115.358,155.01,114.704,153.085,113.649z M125.276,69.735c-0.17-1.178-0.701-2.086-1.756-2.687  c-2.078-1.201-4.157-2.433-6.228-3.649c-0.655,0.447-0.447,1.063-0.431,1.717c0.038,1.717,0.438,3.396,0.531,5.104  c0.069,1.309-0.847,2.61-0.062,3.942c2.794,2.949,6.352,4.866,9.685,7.099C126.431,77.411,125.846,73.577,125.276,69.735z   M116.237,62.613c-0.131,0.247-0.262,0.508-0.385,0.754c-0.092,3.049,0.085,6.09,0.385,9.124c0.062,0.685,0.077,1.278,0.709,1.678  c0.123,0,0.254-0.008,0.385-0.008c1.424-3.587,0.215-7.175-0.039-10.763C116.938,63.137,116.584,62.875,116.237,62.613z   M117.054,53.197c-0.031,1.201,0.739,1.571,1.755,1.702c0.778,0.092,1.355-0.054,1.44-0.978c0.115-1.278-0.593-1.779-1.647-1.863  C117.608,51.904,117.069,52.228,117.054,53.197z M180.955,78.935c0.015-3.311,0.03-6.621,0.03-9.932  C180.446,72.314,180.493,75.625,180.955,78.935z M179.754,70.112c0.03-0.67-0.601-0.67-1.07-0.678  c-0.423-0.008-0.947,0.031-0.908,0.624c0.038,0.531,0.546,0.562,1.063,0.624C179.153,70.605,179.723,70.651,179.754,70.112z   M114.328,76.872c0,0.939,0,1.902,1.24,2.133c0.762-0.685,0.8-1.563,0.747-2.502c-0.038-0.7-0.477-1.378-0.169-2.109  c0.254-0.493,0.161-1.016,0.038-1.501c-0.354-1.401,0.362-2.995-0.731-4.258c-0.369-0.015-0.731-0.031-1.093-0.046  C114.352,71.344,114.328,74.108,114.328,76.872z M117.724,80.082c-0.008-1.216-0.008-2.44-0.016-3.665  c-0.654-0.477-1.116-1.109-1.439-1.855c-0.139-0.185-0.285-0.192-0.447-0.023c-0.6,1.455-0.2,2.972-0.254,4.465  C116.422,79.089,116.992,79.736,117.724,80.082z M125.923,91.269c-2.864-0.562-5.743-0.308-8.623-0.262  C120.164,91.454,123.043,91.307,125.923,91.269z M116.946,74.169c-0.362-3.595-0.731-7.199-1.094-10.802  c-0.677,1.717-0.23,3.511-0.4,5.266c0.101,1.971-0.169,3.958,0.37,5.905c0.154,0.008,0.3,0.015,0.447,0.023  C116.5,74.431,116.723,74.3,116.946,74.169z M43.606,136.03c0.015,4.95,4.019,8.9,9.023,8.923c5.035,0.016,8.885-3.903,8.869-9.008  c-0.023-5.112-3.849-8.915-8.961-8.899C47.502,127.061,43.591,131.003,43.606,136.03z M208.871,133.559  c-2.625,0.862-5.405-0.016-6.906-2.202c-1.424-2.079-1.485-4.95,0.285-6.875c1.432-1.547,1.216-2.91,0.354-4.481  c-0.208,1.147-1.217,1.679-1.917,2.425c-2.687,2.902-2.979,7.399-0.639,10.609c2.325,3.211,6.637,4.312,10.302,2.641  c3.603-1.648,5.489-5.49,4.588-9.354c-0.754,0.377-1.509,0.747-2.264,1.117C212.644,130.595,211.296,132.758,208.871,133.559z   M205.275,129.248c-0.462-0.67-0.416-1.432-0.4-2.187c-0.138-0.408-0.254-0.832-0.423-1.224c-0.262-0.585-0.108-1.57-0.978-1.586  c-0.739-0.016-1.024,0.824-1.316,1.417c-0.986,1.956-0.786,3.873,0.493,5.597c1.255,1.678,3.033,2.356,5.081,1.986  c2.371-0.423,3.812-1.909,4.273-4.304c-0.224-0.893-0.809-0.762-1.44-0.508c-1.032,0.408-2.063,0.801-3.103,1.201  C206.8,129.155,206.146,128.624,205.275,129.248z M205.561,118.515c0.123,0.508,0.246,1.016,0.377,1.517  c1.132,0.239,2.071,0.008,2.595-1.139c-0.092-0.385-0.185-0.77-0.277-1.155C207.101,117.114,206.238,117.491,205.561,118.515z   M206.692,122.634c0.131,0.362,0.254,0.731,0.393,1.093c1.039,0.362,1.855-0.054,2.587-0.762c-0.123-0.493-0.247-0.993-0.37-1.486  C208.024,120.94,207.046,121.079,206.692,122.634z M207.839,116.275c-0.832,0.778-2.448-0.046-2.933,1.44  c0.223,0.262,0.438,0.539,0.654,0.8c0.901-0.262,1.794-0.523,2.694-0.777C208.116,117.252,207.978,116.76,207.839,116.275z   M206.685,121.141c0.862,0.262,1.594,0.192,1.948-0.793c-0.031-0.485-0.069-0.97-0.1-1.455c-0.862,0.377-1.725,0.762-2.595,1.139  C206.046,120.501,206.246,120.902,206.685,121.141z M206.692,122.634c0.747-0.647,1.686-0.909,2.61-1.155  c-0.223-0.385-0.447-0.755-0.67-1.132c-0.654,0.27-1.301,0.531-1.948,0.793C206.5,121.648,206.423,122.142,206.692,122.634z   M204.567,116.329c0.115,0.462,0.231,0.924,0.339,1.386c0.978-0.485,2.225-0.416,2.933-1.44  C206.746,116.29,205.653,116.313,204.567,116.329z M207.485,125.19c0.908-0.354,1.894-0.578,2.533-1.417  c-0.116-0.27-0.239-0.539-0.347-0.808c-0.939,0.023-1.778,0.338-2.587,0.762C207.216,124.212,207.347,124.705,207.485,125.19z   M207.539,125.537c0.601-0.116,1.201-0.223,1.802-0.339c0.385-0.393,0.731-0.816,0.678-1.424c-0.963,0.254-2.025,0.347-2.533,1.417  C207.516,125.306,207.531,125.421,207.539,125.537z M207.747,128.601c0.046-0.793-0.185-1.517-1.078-1.624  c-0.924-0.101-1.239,0.585-1.354,1.362c-0.046,0.3-0.031,0.608-0.039,0.909c0.64,0.616,1.332,0.947,2.187,0.393  C207.563,129.294,207.716,128.947,207.747,128.601z M214.191,124.936c0.038,0.262,0.254,0.4,0.508,0.416  c0.339,0,0.585-0.169,0.577-0.531c-0.015-0.347-0.262-0.493-0.601-0.5C214.338,124.39,214.137,124.574,214.191,124.936z   M52.567,129.702c-3.364,0-6.282,2.926-6.282,6.306c0.008,3.372,2.91,6.251,6.321,6.282c3.349,0.023,6.275-2.926,6.244-6.321  C58.834,132.52,56.017,129.702,52.567,129.702z M52.475,130.395c-3.141,0.046-5.489,2.417-5.512,5.566  c-0.023,3.203,2.41,5.651,5.628,5.636c3.241-0.008,5.597-2.395,5.566-5.659C58.134,132.689,55.739,130.349,52.475,130.395z   M51.12,136.13c0.062,0.916,0.601,1.509,1.555,1.432c0.885-0.069,1.509-0.608,1.517-1.532c0-1.001-0.616-1.547-1.586-1.671  C51.566,134.521,51.059,135.129,51.12,136.13z"/><text x="0" y="171.345" fill="#000000" font-size="5px" font-weight="bold" font-family="'Helvetica Neue', Helvetica, Arial-Unicode, Arial, Sans-serif">Created by Paulami Roychoudhury</text><text x="0" y="176.345" fill="#000000" font-size="5px" font-weight="bold" font-family="'Helvetica Neue', Helvetica, Arial-Unicode, Arial, Sans-serif">from the Noun Project</text></svg>